<svg width="90" height="90" viewBox="0 0 90 90" fill="none" xmlns="http://www.w3.org/2000/svg">
<path fill-rule="evenodd" clip-rule="evenodd" d="M77.7711 0H66.0178C64.6329 0 63.5096 1.13127 63.5096 2.52613C63.5096 3.92099 64.6329 5.05225 66.0178 5.05225H77.7711C81.7493 5.05225 84.9859 8.30986 84.9859 12.3165V24.3892C84.9859 25.7841 86.1069 26.9131 87.4918 26.9131C88.8789 26.9131 90 25.7841 90 24.3892V12.3165C90 5.52453 84.5148 0 77.7711 0ZM22.4221 39.9205V32.81C22.4221 30.989 23.8855 29.5151 25.6936 29.5151C27.5016 29.5151 28.9651 30.989 28.9651 32.81V39.9205C28.9651 41.7415 27.5016 43.2155 25.6936 43.2155C23.8855 43.2155 22.4221 41.7415 22.4221 39.9205ZM67.5788 39.9211C67.5788 41.7421 66.1153 43.2161 64.3073 43.2161C62.4992 43.2161 61.0358 41.7421 61.0358 39.9211V32.8106C61.0358 30.9896 62.4992 29.5157 64.3073 29.5157C66.1153 29.5157 67.5788 30.9896 67.5788 32.8106V39.9211ZM40.0894 56.6856H41.6772C45.7447 56.6856 49.0511 53.3533 49.0511 49.2566V32.2261C49.0511 30.8312 47.9301 29.7 46.5452 29.7C45.1581 29.7 44.037 30.8312 44.037 32.2261V49.2566C44.037 50.5658 42.9771 51.6333 41.6772 51.6333H40.0894C38.7023 51.6333 37.5813 52.7646 37.5813 54.1595C37.5813 55.5543 38.7023 56.6856 40.0894 56.6856ZM45.0337 67.9043C50.1808 67.9043 55.0444 65.9823 57.7249 62.8916C58.6387 61.8416 60.2243 61.734 61.2646 62.65C62.3093 63.5682 62.414 65.1651 61.5023 66.2151C57.8448 70.437 51.6857 72.9566 45.0337 72.9566C38.3227 72.9566 32.1396 70.4019 28.4865 66.1273C27.5814 65.0685 27.6991 63.4737 28.7504 62.5643C29.7972 61.6549 31.3828 61.7735 32.2879 62.8323C34.9597 65.9603 39.8451 67.9043 45.0337 67.9043ZM5.0158 24.1555C5.0158 25.5503 3.89477 26.6816 2.50766 26.6816C1.12273 26.6816 0.00169456 25.5503 0.00169456 24.1555V12.3178C0.00169456 5.52583 5.48471 0.001297 12.2283 0.001297H24.2129C25.6 0.001297 26.7232 1.13256 26.7232 2.52742C26.7232 3.92229 25.6 5.05355 24.2129 5.05355H12.2283C8.25239 5.05355 5.0158 8.31116 5.0158 12.3178V24.1555ZM87.492 63.0866C86.1071 63.0866 84.9861 64.2179 84.9861 65.6127V77.6832C84.9861 81.6899 81.7495 84.9475 77.7714 84.9475H66.018C64.6331 84.9475 63.5098 86.0788 63.5098 87.4736C63.5098 88.8685 64.6331 89.9997 66.018 89.9997H77.7714C84.515 89.9997 90.0002 84.4752 90.0002 77.6832V65.6127C90.0002 64.2179 88.8792 63.0866 87.492 63.0866ZM12.2288 84.9479H24.2134C25.6005 84.9479 26.7215 86.0791 26.7215 87.474C26.7215 88.8688 25.6005 90.0001 24.2134 90.0001H12.2288C5.4852 90.0001 0 84.4756 0 77.6836V65.8459C0 64.4511 1.12321 63.3198 2.50814 63.3198C3.89525 63.3198 5.01628 64.4511 5.01628 65.8459V77.6836C5.01628 81.6902 8.25288 84.9479 12.2288 84.9479Z" fill="#39B3F5"/>
</svg>
